<?xml version="1.0" encoding="UTF-8"?>
<svg width="300mm" height="300mm" version="1.1" viewBox="0 0 300 300" xmlns="http://www.w3.org/2000/svg" xmlns:cc="http://creativecommons.org/ns#" xmlns:dc="http://purl.org/dc/elements/1.1/" xmlns:rdf="http://www.w3.org/1999/02/22-rdf-syntax-ns#">
 <metadata>
  <rdf:RDF>
   <cc:Work rdf:about="">
    <dc:format>image/svg+xml</dc:format>
    <dc:type rdf:resource="http://purl.org/dc/dcmitype/StillImage"/>
   </cc:Work>
  </rdf:RDF>
 </metadata>
 <g transform="matrix(2.03 0 0 2.03 -539.8 -139.5)">
  <path d="m399.2 120.8c-2.786-6.703-8.437-13.94-12.86-16.23a66.61 66.61 0 0 1 6.493 19.46l0.0116 0.1075c-7.249-18.07-19.54-25.36-29.58-41.23-0.5079-0.8024-1.016-1.606-1.51-2.455-0.2829-0.4847-0.5095-0.9215-0.7064-1.323a11.67 11.67 0 0 1-0.9562-2.539 0.1654 0.1654 0 0 0-0.1456-0.1654 0.2283 0.2283 0 0 0-0.1208 0c-8e-3 0-0.0215 0.01489-0.0314 0.0182-0.01 0.0033-0.0314 0.0182-0.0463 0.02482l0.0248-0.04301c-16.1 9.43-21.57 26.89-22.07 35.62a32.07 32.07 0 0 0-17.65 6.801 19.17 19.17 0 0 0-1.654-1.254 29.73 29.73 0 0 1-0.1803-15.67 47.49 47.49 0 0 0-15.43 11.93h-0.0298c-2.541-3.221-2.362-13.84-2.217-16.06a11.46 11.46 0 0 0-2.141 1.137 46.69 46.69 0 0 0-6.267 5.368 55.99 55.99 0 0 0-5.994 7.191v0.01-0.0116a54.15 54.15 0 0 0-8.603 19.43l-0.086 0.4235c-0.1208 0.5641-0.5558 3.39-0.6303 4.003 0 0.048-0.01 0.0926-0.0149 0.1406a61.11 61.11 0 0 0-1.041 8.839v0.3309a64.12 64.12 0 0 0 127.3 10.84c0.1075-0.8272 0.1952-1.646 0.2912-2.482a65.94 65.94 0 0 0-4.159-32.21z" fill="#8d5cff"/>
  <g fill="#2dc2c9">
   <path d="m362.5 120.9a34.91 34.91 0 0 1 5.956 7.775c0.3524 0.2663 0.6816 0.531 0.9612 0.7875 14.54 13.4 6.92 32.34 6.353 33.69 11.81-9.729 19.36-24.12 17.09-38.97-7.253-18.08-19.55-25.37-29.59-41.24-0.5079-0.8024-1.016-1.606-1.51-2.455-0.2829-0.4847-0.5095-0.9215-0.7064-1.323a11.67 11.67 0 0 1-0.9562-2.539 0.1654 0.1654 0 0 0-0.1456-0.1654 0.2283 0.2283 0 0 0-0.1208 0c-8e-3 0-0.0215 0.01489-0.0314 0.0182-0.01 0.0033-0.0314 0.0182-0.0463 0.02482-2.48 1.176-17.19 24.46 2.746 44.39z"/>
   <path d="m311.1 150.5s2.96-11.03 21.19-11.03c1.97 0 7.61-5.501 7.711-7.095a31.93 31.93 0 0 1-24.07-0.9463 24.18 24.18 0 0 0-23.57 0.9463 16.47 16.47 0 0 0 15.19 9.554c-1.188 10.48 4.354 22.71 17.77 29.12 0.2994 0.1439 0.5807 0.2994 0.8884 0.4368-7.83-4.045-14.3-11.69-15.1-20.98z"/>
  </g>
  <path d="m340 132.3c-0.1059 1.595-5.741 7.095-7.711 7.095-18.23 0-21.19 11.03-21.19 11.03 0.8073 9.287 7.279 16.94 15.1 20.98 0.3573 0.1853 0.7196 0.3524 1.082 0.5161q0.9413 0.4169 1.883 0.7709a28.51 28.51 0 0 0 8.343 1.61c31.96 1.499 38.15-38.22 15.09-49.74a22.13 22.13 0 0 1 15.46 3.754 32.36 32.36 0 0 0-28.09-16.41c-0.761 0-1.505 0.0629-2.253 0.1142a32.07 32.07 0 0 0-17.65 6.801c0.9777 0.8272 2.081 1.932 4.405 4.224 4.351 4.286 15.51 8.727 15.53 9.248z" fill="#2b3598"/>
 </g>
</svg>
