<?xml version="1.0" encoding="UTF-8" standalone="no"?>
<svg
   xmlns:dc="http://purl.org/dc/elements/1.1/"
   xmlns:cc="http://creativecommons.org/ns#"
   xmlns:rdf="http://www.w3.org/1999/02/22-rdf-syntax-ns#"
   xmlns:svg="http://www.w3.org/2000/svg"
   xmlns="http://www.w3.org/2000/svg"
   xmlns:sodipodi="http://sodipodi.sourceforge.net/DTD/sodipodi-0.dtd"
   xmlns:inkscape="http://www.inkscape.org/namespaces/inkscape"
   sodipodi:docname="firefox_nightlly.svg"
   inkscape:version="1.0 (4035a4f, 2020-05-01)"
   id="svg2198"
   version="1.1"
   viewBox="0 0 300 300"
   height="300mm"
   width="300mm">
  <defs
     id="defs2192" />
  <sodipodi:namedview
     inkscape:window-maximized="1"
     inkscape:window-y="0"
     inkscape:window-x="0"
     inkscape:window-height="1040"
     inkscape:window-width="1920"
     showgrid="false"
     inkscape:document-rotation="0"
     inkscape:current-layer="layer1"
     inkscape:document-units="mm"
     inkscape:cy="566.92913"
     inkscape:cx="566.92913"
     inkscape:zoom="0.72584028"
     inkscape:pageshadow="2"
     inkscape:pageopacity="0.0"
     borderopacity="1.0"
     bordercolor="#666666"
     pagecolor="#ffffff"
     id="base" />
  <metadata
     id="metadata2195">
    <rdf:RDF>
      <cc:Work
         rdf:about="">
        <dc:format>image/svg+xml</dc:format>
        <dc:type
           rdf:resource="http://purl.org/dc/dcmitype/StillImage" />
        <dc:title></dc:title>
      </cc:Work>
    </rdf:RDF>
  </metadata>
  <g
     id="layer1"
     inkscape:groupmode="layer"
     inkscape:label="图层 1">
    <g
       id="g2144"
       transform="matrix(2.0300426,0,0,2.0300426,-539.75844,-139.46928)">
      <path
         id="path993-4"
         d="m 399.17705,120.82734 c -2.78589,-6.70336 -8.4371,-13.94107 -12.86244,-16.22901 a 66.613401,66.613401 0 0 1 6.49326,19.46158 l 0.0116,0.10753 c -7.24929,-18.07359 -19.54264,-25.360937 -29.5828,-41.229306 -0.50788,-0.802352 -1.01576,-1.606358 -1.5104,-2.455031 -0.28289,-0.48472 -0.50954,-0.921464 -0.7064,-1.323467 a 11.668016,11.668016 0 0 1 -0.95621,-2.539403 0.16543337,0.16543337 0 0 0 -0.14558,-0.165433 0.22829805,0.22829805 0 0 0 -0.12076,0 c -0.008,0 -0.0215,0.01489 -0.0314,0.0182 -0.01,0.0033 -0.0314,0.0182 -0.0463,0.02482 l 0.0248,-0.04301 c -16.10494,9.429702 -21.56921,26.88623 -22.07212,35.61781 a 32.072567,32.072567 0 0 0 -17.64519,6.80095 19.168765,19.168765 0 0 0 -1.65433,-1.25398 29.725068,29.725068 0 0 1 -0.18032,-15.67151 47.487649,47.487649 0 0 0 -15.43328,11.92775 h -0.0298 c -2.54106,-3.22099 -2.36239,-13.84181 -2.21681,-16.060273 a 11.461224,11.461224 0 0 0 -2.14071,1.136511 46.693569,46.693569 0 0 0 -6.26661,5.368312 55.990924,55.990924 0 0 0 -5.99365,7.19139 v 0.01 -0.0116 a 54.151305,54.151305 0 0 0 -8.60254,19.42684 l -0.086,0.42353 c -0.12076,0.56412 -0.55585,3.38972 -0.6303,4.00348 0,0.048 -0.01,0.0926 -0.0149,0.14062 a 61.106124,61.106124 0 0 0 -1.04057,8.83911 v 0.33086 a 64.12032,64.12032 0 0 0 127.30759,10.84251 c 0.10753,-0.82717 0.19521,-1.64607 0.29116,-2.4815 a 65.936778,65.936778 0 0 0 -4.159,-32.20823 z"
         style="fill:#7670ff;fill-opacity:1;stroke:none;stroke-width:1.65433;stroke-opacity:0.8" />
      <g
         style="fill:#d5daff;fill-opacity:1"
         id="g2066">
        <path
           style="fill:#2adfd7;fill-opacity:1;stroke:none;stroke-width:1.65433;stroke-opacity:0.8"
           d="m 362.46739,120.89021 a 34.906441,34.906441 0 0 1 5.9556,7.77537 c 0.35237,0.26634 0.68159,0.53105 0.96117,0.78746 14.53663,13.4001 6.92008,32.34222 6.35264,33.6905 11.80863,-9.72913 19.3557,-24.11687 17.08761,-38.96783 -7.2526,-18.08186 -19.54595,-25.369207 -29.5861,-41.237576 -0.50788,-0.802352 -1.01576,-1.606358 -1.51041,-2.455031 -0.28289,-0.48472 -0.50953,-0.921464 -0.7064,-1.323467 a 11.668016,11.668016 0 0 1 -0.9562,-2.539403 0.16543337,0.16543337 0 0 0 -0.14558,-0.165433 0.22829805,0.22829805 0 0 0 -0.12077,0 c -0.008,0 -0.0215,0.01489 -0.0314,0.0182 -0.01,0.0033 -0.0314,0.0182 -0.0463,0.02482 -2.47985,1.176231 -17.18522,24.46098 2.74619,44.3924 z"
           id="path1017-6" />
        <path
           style="fill:#2adfd7;fill-opacity:1;stroke:none;stroke-width:1.65433;stroke-opacity:0.8"
           d="m 311.06724,150.46969 c 0,0 2.9596,-11.02944 21.19202,-11.02944 1.97031,0 7.60993,-5.50066 7.71085,-7.09544 a 31.92864,31.92864 0 0 1 -24.07387,-0.94628 24.18305,24.18305 0 0 0 -23.5726,0.94628 16.465583,16.465583 0 0 0 15.18844,9.55378 c -1.18781,10.48351 4.3542,22.70573 17.7692,29.11627 0.29943,0.14393 0.58067,0.29945 0.88837,0.43675 -7.82996,-4.04485 -14.29509,-11.69449 -15.10241,-20.98192 z"
           id="path1021-9" />
      </g>
      <path
         id="path1003-2"
         d="m 339.96845,132.34481 c -0.10588,1.5948 -5.74054,7.09544 -7.71085,7.09544 -18.23241,0 -21.19201,11.02944 -21.19201,11.02944 0.80731,9.28743 7.27907,16.93707 15.10241,20.98357 0.35734,0.18527 0.71963,0.35236 1.08193,0.51614 q 0.94132,0.41689 1.88264,0.77092 a 28.512441,28.512441 0 0 0 8.3428,1.60968 c 31.95676,1.49883 38.14728,-38.21511 15.08587,-49.7392 a 22.134985,22.134985 0 0 1 15.45975,3.75369 32.358767,32.358767 0 0 0 -28.0939,-16.40603 c -0.76099,0 -1.50544,0.0629 -2.2532,0.11415 a 32.072567,32.072567 0 0 0 -17.64512,6.80096 c 0.97771,0.82717 2.08115,1.93227 4.40549,4.22352 4.3509,4.28638 15.50938,8.72661 15.53419,9.24772 z"
         style="fill:#363eb8;fill-opacity:1;stroke:none;stroke-width:1.65433;stroke-opacity:0.8" />
    </g>
  </g>
</svg>
