<?xml version="1.0" encoding="UTF-8"?>
<svg width="300mm" height="300mm" version="1.1" viewBox="0 0 300 300" xmlns="http://www.w3.org/2000/svg" xmlns:cc="http://creativecommons.org/ns#" xmlns:dc="http://purl.org/dc/elements/1.1/" xmlns:rdf="http://www.w3.org/1999/02/22-rdf-syntax-ns#">
 <metadata>
  <rdf:RDF>
   <cc:Work rdf:about="">
    <dc:format>image/svg+xml</dc:format>
    <dc:type rdf:resource="http://purl.org/dc/dcmitype/StillImage"/>
   </cc:Work>
  </rdf:RDF>
 </metadata>
 <g transform="matrix(2.03 0 0 2.03 -539.76 -139.47)">
  <path d="m399.18 120.83c-2.7859-6.7034-8.4371-13.941-12.862-16.229a66.613 66.613 0 0 1 6.4933 19.462l0.0116 0.10753c-7.2493-18.074-19.543-25.361-29.583-41.229-0.50788-0.80235-1.0158-1.6064-1.5104-2.455-0.28289-0.48472-0.50954-0.92146-0.7064-1.3235a11.668 11.668 0 0 1-0.95621-2.5394 0.16543 0.16543 0 0 0-0.14558-0.16543 0.2283 0.2283 0 0 0-0.12076 0c-8e-3 0-0.0215 0.01489-0.0314 0.0182-0.01 0.0033-0.0314 0.0182-0.0463 0.02482l0.0248-0.04301c-16.105 9.4297-21.569 26.886-22.072 35.618a32.073 32.073 0 0 0-17.645 6.801 19.169 19.169 0 0 0-1.6543-1.254 29.725 29.725 0 0 1-0.18032-15.672 47.488 47.488 0 0 0-15.433 11.928h-0.0298c-2.5411-3.221-2.3624-13.842-2.2168-16.06a11.461 11.461 0 0 0-2.1407 1.1365 46.694 46.694 0 0 0-6.2666 5.3683 55.991 55.991 0 0 0-5.9936 7.1914v0.01-0.0116a54.151 54.151 0 0 0-8.6025 19.427l-0.086 0.42353c-0.12076 0.56412-0.55585 3.3897-0.6303 4.0035 0 0.048-0.01 0.0926-0.0149 0.14062a61.106 61.106 0 0 0-1.0406 8.8391v0.33086a64.12 64.12 0 0 0 127.31 10.843c0.10753-0.82717 0.19521-1.6461 0.29116-2.4815a65.937 65.937 0 0 0-4.159-32.208z" fill="#8453ff"/>
  <g fill="#07ccc2">
   <path d="m362.47 120.89a34.906 34.906 0 0 1 5.9556 7.7754c0.35237 0.26634 0.68159 0.53105 0.96117 0.78746 14.537 13.4 6.9201 32.342 6.3526 33.69 11.809-9.7291 19.356-24.117 17.088-38.968-7.2526-18.082-19.546-25.369-29.586-41.238-0.50788-0.80235-1.0158-1.6064-1.5104-2.455-0.28289-0.48472-0.50953-0.92146-0.7064-1.3235a11.668 11.668 0 0 1-0.9562-2.5394 0.16543 0.16543 0 0 0-0.14558-0.16543 0.2283 0.2283 0 0 0-0.12077 0c-8e-3 0-0.0215 0.01489-0.0314 0.0182-0.01 0.0033-0.0314 0.0182-0.0463 0.02482-2.4798 1.1762-17.185 24.461 2.7462 44.392z"/>
   <path d="m311.07 150.47s2.9596-11.029 21.192-11.029c1.9703 0 7.6099-5.5007 7.7108-7.0954a31.929 31.929 0 0 1-24.074-0.94628 24.183 24.183 0 0 0-23.573 0.94628 16.466 16.466 0 0 0 15.188 9.5538c-1.1878 10.484 4.3542 22.706 17.769 29.116 0.29943 0.14393 0.58067 0.29945 0.88837 0.43675-7.83-4.0448-14.295-11.694-15.102-20.982z"/>
  </g>
  <path d="m339.97 132.34c-0.10588 1.5948-5.7405 7.0954-7.7108 7.0954-18.232 0-21.192 11.029-21.192 11.029 0.80731 9.2874 7.2791 16.937 15.102 20.984 0.35734 0.18527 0.71963 0.35236 1.0819 0.51614q0.94132 0.41689 1.8826 0.77092a28.512 28.512 0 0 0 8.3428 1.6097c31.957 1.4988 38.147-38.215 15.086-49.739a22.135 22.135 0 0 1 15.46 3.7537 32.359 32.359 0 0 0-28.094-16.406c-0.76099 0-1.5054 0.0629-2.2532 0.11415a32.073 32.073 0 0 0-17.645 6.801c0.97771 0.82717 2.0812 1.9323 4.4055 4.2235 4.3509 4.2864 15.509 8.7266 15.534 9.2477z" fill="#363eb8"/>
 </g>
</svg>
